<?xml version="1.0" encoding="utf-8"?>
<!-- Generator: Adobe Illustrator 14.0.0, SVG Export Plug-In . SVG Version: 6.00 Build 43363)  -->
<!DOCTYPE svg PUBLIC "-//W3C//DTD SVG 1.1//EN" "http://www.w3.org/Graphics/SVG/1.1/DTD/svg11.dtd">
<svg version="1.1" id="Layer_1" xmlns="http://www.w3.org/2000/svg" xmlns:xlink="http://www.w3.org/1999/xlink" x="0px" y="0px"
	 width="202px" height="172px" viewBox="0 0 202 172" enable-background="new 0 0 202 172" xml:space="preserve">
<g>
	<polygon fill="#FFFFFF" points="100.998,10.822 11,161.404 191,161.406 100.998,10.822 	"/>
	<polygon fill="none" stroke="#00ADEE" stroke-width="19.8418" stroke-linecap="round" stroke-linejoin="round" points="
		100.998,10.822 11,161.404 191,161.406 100.998,10.822 	"/>
	<polygon fill="#020000" points="36.525,147.213 134.805,96.482 165.754,147.213 36.525,147.213 	"/>
	<g>
		<path fill="none" stroke="#020000" stroke-width="1.1502" d="M88.852,115.787l-5.064,2.579l-8.565-15.457l-6.277,3.198
			l-2.019-3.645c3.568-1.73,6.172-4.542,4.688-8.457l4.03-2.053L88.852,115.787z"/>
	</g>
	<g>
		<path fill="#020000" d="M88.852,115.787l-5.064,2.579l-8.565-15.457l-6.277,3.198l-2.019-3.645
			c3.568-1.73,6.172-4.542,4.688-8.457l4.03-2.053L88.852,115.787z"/>
	</g>
	<g>
		<path fill="none" stroke="#020000" stroke-width="1.1502" d="M87.89,85.097c4.993-2.543,10.861-1.69,16.013,7.605
			c5.264,9.498,2.716,14.64-2.277,17.183c-4.922,2.507-10.79,1.653-16.054-7.845C80.42,92.745,82.968,87.604,87.89,85.097z
			 M99.417,105.9c4.137-2.107,0.911-7.929-0.579-10.618c-1.378-2.485-4.604-8.308-8.741-6.201
			c-4.065,2.071-0.839,7.894,0.538,10.379C92.126,102.15,95.352,107.971,99.417,105.9z"/>
	</g>
	<g>
		<path fill="#020000" d="M87.89,85.097c4.993-2.543,10.861-1.69,16.013,7.605c5.264,9.498,2.716,14.64-2.277,17.183
			c-4.922,2.507-10.79,1.653-16.054-7.845C80.42,92.745,82.968,87.604,87.89,85.097z M99.417,105.9
			c4.137-2.107,0.911-7.929-0.579-10.618c-1.378-2.485-4.604-8.308-8.741-6.201c-4.065,2.071-0.839,7.894,0.538,10.379
			C92.126,102.15,95.352,107.971,99.417,105.9z"/>
	</g>
	<g>
		<path fill="none" stroke="#020000" stroke-width="1.1502" d="M109.144,74.262c4.993-2.543,10.862-1.69,16.013,7.605
			c5.264,9.498,2.716,14.639-2.276,17.182c-4.922,2.507-10.791,1.654-16.055-7.844C101.675,81.91,104.223,76.769,109.144,74.262z
			 M120.672,95.064c4.137-2.107,0.911-7.929-0.58-10.618c-1.377-2.485-4.604-8.308-8.74-6.2c-4.066,2.071-0.84,7.893,0.538,10.378
			C113.381,91.314,116.606,97.135,120.672,95.064z"/>
	</g>
	<g>
		<path fill="#020000" d="M109.144,74.262c4.993-2.543,10.862-1.69,16.013,7.605c5.264,9.498,2.716,14.639-2.276,17.182
			c-4.922,2.507-10.791,1.654-16.055-7.844C101.675,81.91,104.223,76.769,109.144,74.262z M120.672,95.064
			c4.137-2.107,0.911-7.929-0.58-10.618c-1.377-2.485-4.604-8.308-8.74-6.2c-4.066,2.071-0.84,7.893,0.538,10.378
			C113.381,91.314,116.606,97.135,120.672,95.064z"/>
	</g>
</g>
</svg>
