<?xml version="1.0" encoding="utf-8"?>
<!-- Generator: Adobe Illustrator 14.0.0, SVG Export Plug-In . SVG Version: 6.00 Build 43363)  -->
<!DOCTYPE svg PUBLIC "-//W3C//DTD SVG 1.1//EN" "http://www.w3.org/Graphics/SVG/1.1/DTD/svg11.dtd">
<svg version="1.1" id="Layer_1" xmlns="http://www.w3.org/2000/svg" xmlns:xlink="http://www.w3.org/1999/xlink" x="0px" y="0px"
	 width="40px" height="40px" viewBox="0 0 40 40" enable-background="new 0 0 40 40" xml:space="preserve">
<circle fill="#D3672E" stroke="#8F4321" cx="20" cy="20" r="19.5"/>
<g opacity="0.75">
	<g>
		<path fill="none" stroke="#8F4321" d="M20.258,4.229c0,0-0.606-0.063-1.01,0.554c-0.405,0.707-2.363,3.928-2.363,3.928
			L5.566,27.659c0,0-0.625,0.855-0.188,1.442s0.783,0.566,1.009,0.566c0.226,0,27.404,0.011,27.404,0.011s0.963,0.119,1.379-0.577
			c0.306-0.561,0.059-1.005-0.021-1.148c-0.078-0.142-13.792-23.04-13.792-23.04S21.043,4.209,20.258,4.229L20.258,4.229z"/>
		<polygon fill="none" stroke="#8F4321" points="20.264,6.789 10.249,23.565 30.293,23.552 20.264,6.789 		"/>
		<polygon fill="#8F4321" points="11.836,22.689 24.671,16.063 28.714,22.689 11.836,22.689 		"/>
		<g>
			<path fill="#8F4321" d="M18.57,18.627l-0.662,0.338l-1.118-2.018l-0.821,0.418l-0.264-0.477c0.466-0.227,0.808-0.593,0.614-1.104
				l0.527-0.269L18.57,18.627z"/>
		</g>
		<g>
			<path fill="#8F4321" d="M18.446,14.621c0.652-0.332,1.42-0.222,2.092,0.991c0.688,1.24,0.354,1.911-0.299,2.244
				c-0.644,0.328-1.411,0.218-2.098-1.022C17.469,15.621,17.803,14.949,18.446,14.621z M19.951,17.337
				c0.541-0.275,0.119-1.036-0.075-1.387c-0.18-0.325-0.601-1.084-1.142-0.809c-0.532,0.271-0.111,1.029,0.069,1.354
				C18.998,16.847,19.419,17.607,19.951,17.337z"/>
		</g>
		<g>
			<path fill="#8F4321" d="M21.222,13.207c0.652-0.332,1.42-0.222,2.092,0.992c0.688,1.24,0.354,1.911-0.299,2.243
				c-0.644,0.328-1.411,0.218-2.098-1.022C20.244,14.207,20.578,13.535,21.222,13.207z M22.727,15.923
				c0.541-0.275,0.119-1.036-0.075-1.387c-0.18-0.325-0.601-1.084-1.142-0.809c-0.532,0.271-0.111,1.03,0.069,1.355
				C21.773,15.434,22.194,16.194,22.727,15.923z"/>
		</g>
		<g>
			<path fill="#8F4321" d="M25.09,27.795c-0.119,0.062-0.369,0.123-0.685,0.123c-0.73,0-1.276-0.461-1.276-1.314
				c0-0.815,0.55-1.361,1.354-1.361c0.319,0,0.526,0.069,0.615,0.115l-0.085,0.273c-0.123-0.063-0.304-0.108-0.519-0.108
				c-0.607,0-1.011,0.389-1.011,1.069c0,0.639,0.365,1.042,0.992,1.042c0.208,0,0.415-0.042,0.55-0.107L25.09,27.795z"/>
			<path fill="#8F4321" d="M25.506,25.284h0.338v2.312h1.107v0.28h-1.446V25.284z"/>
		</g>
		<g>
			<path fill="#8F4321" d="M27.878,25.284v1.538c0,0.577,0.258,0.823,0.604,0.823c0.381,0,0.631-0.254,0.631-0.823v-1.538h0.338
				v1.515c0,0.797-0.419,1.119-0.98,1.119c-0.53,0-0.931-0.3-0.931-1.107v-1.526H27.878z"/>
			<path fill="#8F4321" d="M30.027,25.322c0.146-0.034,0.381-0.058,0.611-0.058c0.335,0,0.55,0.058,0.708,0.188
				c0.135,0.101,0.219,0.254,0.219,0.458c0,0.254-0.169,0.473-0.438,0.569v0.012c0.246,0.058,0.535,0.261,0.535,0.646
				c0,0.223-0.089,0.396-0.224,0.52c-0.177,0.165-0.469,0.242-0.892,0.242c-0.23,0-0.408-0.016-0.52-0.031V25.322z M30.362,26.384
				h0.304c0.35,0,0.558-0.188,0.558-0.438c0-0.3-0.228-0.423-0.565-0.423c-0.154,0-0.242,0.012-0.296,0.023V26.384z M30.362,27.622
				c0.069,0.012,0.161,0.016,0.28,0.016c0.347,0,0.665-0.127,0.665-0.504c0-0.35-0.304-0.5-0.669-0.5h-0.276V27.622z"/>
		</g>
		<polyline fill="#8F4321" points="11.004,25.181 11.004,25.935 11.796,25.935 11.796,27.859 12.697,27.859 12.697,25.939 
			13.489,25.939 13.489,25.176 10.999,25.176 		"/>
		<path fill="#8F4321" d="M10.985,25.489l-0.436,0.611c0,0-0.251-0.228-0.773-0.275c-0.218-0.005-0.228,0.114-0.228,0.114
			s-0.043,0.108,0.304,0.17c0.403,0.096,1.243,0.228,1.21,0.915c-0.029,0.546-0.423,0.721-0.551,0.773
			c-0.124,0.062-1.124,0.369-2.011-0.332c0.127-0.165,0.465-0.573,0.465-0.573s0.327,0.295,0.934,0.313
			c0.275,0.015,0.346-0.161,0.085-0.25c-0.261-0.091-1.024-0.125-1.275-0.594c-0.251-0.47,0.128-1.118,0.668-1.19
			C9.824,25.08,10.478,25.095,10.985,25.489L10.985,25.489z"/>
		<path fill="#8F4321" d="M13.622,25.171v2.688h0.887v-0.759h0.208l0.507,0.759h1.612l0.588-1.156l0.588,1.156h0.858l-1.446-2.849
			l-1.337,2.621l-0.47-0.683c0,0,0.227-0.076,0.379-0.317c0.202-0.266,0.147-0.517,0.147-0.517s0.08-0.93-1.143-0.944
			C13.939,25.171,13.622,25.171,13.622,25.171L13.622,25.171z M14.935,25.935c0.052,0,0.313-0.009,0.318,0.251
			c0.005,0.261-0.27,0.261-0.27,0.261l-0.47,0.005l0.005-0.521C14.518,25.931,14.883,25.935,14.935,25.935L14.935,25.935z"/>
		<polyline fill="#8F4321" points="17.984,25.181 19.445,28.035 20.891,25.176 20.028,25.176 19.44,26.332 18.856,25.181 
			17.979,25.176 		"/>
		<polyline fill="#8F4321" points="22.916,27.87 21.455,25.016 20.014,27.865 20.877,27.865 21.461,26.716 22.043,27.87 
			22.921,27.874 		"/>
	</g>
</g>
</svg>
