<?xml version="1.0" encoding="utf-8"?>
<!-- Generator: Adobe Illustrator 14.0.0, SVG Export Plug-In . SVG Version: 6.00 Build 43363)  -->
<!DOCTYPE svg PUBLIC "-//W3C//DTD SVG 1.1//EN" "http://www.w3.org/Graphics/SVG/1.1/DTD/svg11.dtd">
<svg version="1.1" id="Layer_1" xmlns="http://www.w3.org/2000/svg" xmlns:xlink="http://www.w3.org/1999/xlink" x="0px" y="0px"
	 width="202px" height="172px" viewBox="0 0 202 172" enable-background="new 0 0 202 172" xml:space="preserve">
<g>
	<polygon fill="#FFFFFF" points="100.999,10.822 11,161.404 191,161.406 100.999,10.822 	"/>
	<polygon fill="none" stroke="#EC1C24" stroke-width="19.8418" stroke-linecap="round" stroke-linejoin="round" points="
		100.999,10.822 11,161.404 191,161.406 100.999,10.822 	"/>
	<polygon fill="#020000" points="36.526,147.213 134.806,96.482 165.754,147.213 36.526,147.213 	"/>
	<g>
		<path fill="none" stroke="#020000" stroke-width="1.1502" d="M88.852,115.787l-5.064,2.58l-8.565-15.457l-6.277,3.197
			l-2.019-3.643c3.568-1.73,6.172-4.541,4.688-8.458l4.03-2.053L88.852,115.787z"/>
	</g>
	<g>
		<path fill="#020000" d="M88.852,115.787l-5.064,2.58l-8.565-15.457l-6.277,3.197l-2.019-3.643c3.568-1.73,6.172-4.541,4.688-8.458
			l4.03-2.053L88.852,115.787z"/>
	</g>
	<g>
		<path fill="none" stroke="#020000" stroke-width="1.1502" d="M87.89,85.1c4.993-2.543,10.861-1.691,16.012,7.604
			c5.264,9.499,2.717,14.64-2.276,17.183c-4.922,2.507-10.79,1.654-16.054-7.845C80.421,92.747,82.969,87.607,87.89,85.1z
			 M99.418,105.902c4.137-2.107,0.911-7.928-0.579-10.618c-1.378-2.485-4.604-8.308-8.741-6.201
			c-4.065,2.071-0.839,7.894,0.538,10.379C92.127,102.152,95.353,107.973,99.418,105.902z"/>
	</g>
	<g>
		<path fill="#020000" d="M87.89,85.1c4.993-2.543,10.861-1.691,16.012,7.604c5.264,9.499,2.717,14.64-2.276,17.183
			c-4.922,2.507-10.79,1.654-16.054-7.845C80.421,92.747,82.969,87.607,87.89,85.1z M99.418,105.902
			c4.137-2.107,0.911-7.928-0.579-10.618c-1.378-2.485-4.604-8.308-8.741-6.201c-4.065,2.071-0.839,7.894,0.538,10.379
			C92.127,102.152,95.353,107.973,99.418,105.902z"/>
	</g>
	<g>
		<path fill="none" stroke="#020000" stroke-width="1.1502" d="M109.144,74.264c4.993-2.543,10.862-1.691,16.013,7.604
			c5.264,9.499,2.716,14.639-2.277,17.182c-4.921,2.507-10.79,1.655-16.054-7.844C101.674,81.911,104.222,76.771,109.144,74.264z
			 M120.672,95.066c4.137-2.107,0.91-7.928-0.58-10.619c-1.377-2.485-4.604-8.308-8.74-6.201c-4.066,2.071-0.84,7.894,0.538,10.379
			C113.38,91.316,116.606,97.138,120.672,95.066z"/>
	</g>
	<g>
		<path fill="#020000" d="M109.144,74.264c4.993-2.543,10.862-1.691,16.013,7.604c5.264,9.499,2.716,14.639-2.277,17.182
			c-4.921,2.507-10.79,1.655-16.054-7.844C101.674,81.911,104.222,76.771,109.144,74.264z M120.672,95.066
			c4.137-2.107,0.91-7.928-0.58-10.619c-1.377-2.485-4.604-8.308-8.74-6.201c-4.066,2.071-0.84,7.894,0.538,10.379
			C113.38,91.316,116.606,97.138,120.672,95.066z"/>
	</g>
</g>
</svg>
