<?xml version="1.0" encoding="utf-8"?>
<!-- Generator: Adobe Illustrator 14.0.0, SVG Export Plug-In . SVG Version: 6.00 Build 43363)  -->
<!DOCTYPE svg PUBLIC "-//W3C//DTD SVG 1.1//EN" "http://www.w3.org/Graphics/SVG/1.1/DTD/svg11.dtd">
<svg version="1.1" xmlns="http://www.w3.org/2000/svg" xmlns:xlink="http://www.w3.org/1999/xlink" x="0px" y="0px" width="202px"
	 height="172px" viewBox="0 0 202 172" enable-background="new 0 0 202 172" xml:space="preserve">
<g id="Layer_1">
	<g>
		<polyline fill="#EC1C24" points="100.995,8.775 8.872,162.904 193.119,162.917 100.995,8.775 		"/>
		<path fill="#EC1C24" d="M100.995,8.775L94.16,5.066L2.035,159.206c-1.39,2.331-1.38,5.161,0.031,7.47
			c1.421,2.313,3.997,3.723,6.807,3.723l184.247,0.009c2.821,0,5.396-1.41,6.808-3.73c1.42-2.309,1.43-5.139,0.041-7.47
			L107.843,5.066c-1.399-2.341-4.006-3.781-6.848-3.781c-2.83,0-5.436,1.44-6.835,3.781L100.995,8.775l-6.835,3.701l85.428,142.937
			H22.414l85.429-142.937L100.995,8.775l-6.835,3.701L100.995,8.775"/>
		<path fill="#FFF100" d="M22.557,155.322c0,0,7.246-4.437,8.994-15.813c0.991-6.416,0.46-5.671,1.789-11.518
			c2.392-10.598,10.333-14.542,9.822-13.797c-1.799,2.637-4.733,10.894-0.45,16.046c-0.113-13.961,13.265-20.276,0.572-30.017
			c1.399-0.635,11.498-2.912,13.367,10.383c3.097-13.867-1.267-17.444,2.913-28.625c3.333-8.913,8.882-14.737,21.351-19.397
			c-13.399,10.904-14.82,20.001-8.626,30.905c-1.021-8.922,1.277-13.216,4.998-17.641c5.273-6.265,6.265-7.001,8.563-9.934
			c2.923-3.729,4.742-16.005-7.174-15.125c5.641-4.742,13.878-6.102,17.209,1.256c1.779-1.389,4.651-3.332,3.793-9.524
			c-0.768-5.631-7.685-13.205,1.798-25.989c0.142,6.991-1.368,9.361,10.282,21.043c10.118,10.158,5.651,27.511,4.967,29.259
			c-0.326,0.839,0.287-2.022,2.168-4.884c2.022-3.087,5.518-6.163,10.873-4.62c-4.507,3.035-5.131,6.572-3.261,11.252
			c2.097,5.254,7.349,6.603,4.875,17.067c1.259-1.257,9.873-10.516,0.134-18.345c0.694,0,11.813,1.309,12.93,15.729
			c1.123,14.432-5.797,16.179,0.377,27.136c-0.694-7.513,5.795-10.467,10.229-9.301c-1.094,0.961-5.772,5.059-2.678,11.855
			c2.435,5.334,7.869,8.676,9.505,19.56c0.275-1.858,4.641-8.328-1.563-13.817c2.852-0.111,8.859,0.625,10.065,12.786
			c0.134,3.771,0.03,8.829,2.127,14.421c2.104,5.6,7.052,9.647,7.052,9.647L22.557,155.322"/>
		<path fill="#020000" d="M35.465,149.354L137.104,98.52c0,0-2.258,8.4,5.028,17.854c3.658,4.753,6.062,0.235,5.847-0.541
			c0,0,7.584,9.044,9.197,18.16c1.196,6.807,4.979,7.583,7.512,4.282c0.104-0.133,0.123,2.76,0.961,6.039
			c0.758,2.942,2.127,5.06,2.127,5.06L35.465,149.354"/>
	</g>
</g>
<g id="Layer_2">
	<g>
		<g>
			<g id="XMLID_1_">
				<g>
					<path d="M116.372,81.483c6.854-1.208,13.388,3.366,14.595,10.211c1.209,6.854-3.368,13.378-10.223,14.586
						c-6.844,1.207-13.376-3.357-14.585-10.212C104.952,89.224,109.527,82.69,116.372,81.483z M128.415,92.022
						c-0.962-5.456-6.164-9.098-11.619-8.136c-5.456,0.962-9.099,6.164-8.136,11.62c0.962,5.455,6.163,9.098,11.619,8.136
						C125.734,102.68,129.377,97.478,128.415,92.022z"/>
				</g>
				<g>
				</g>
			</g>
			<line fill="none" stroke="#000000" stroke-width="0.2" x1="108.225" y1="95.708" x2="128.906" y2="92.062"/>
			<line fill="none" stroke="#000000" stroke-width="0.2" x1="116.742" y1="83.544" x2="120.389" y2="104.226"/>
			<g>
				<line fill="none" stroke="#000000" stroke-width="0.2" x1="110.521" y1="100.634" x2="126.607" y2="87.136"/>
				<line fill="none" stroke="#000000" stroke-width="0.2" x1="111.816" y1="85.841" x2="125.314" y2="101.927"/>
			</g>
			<g>
				<line fill="none" stroke="#000000" stroke-width="0.2" x1="108.688" y1="90.231" x2="128.422" y2="97.413"/>
				<line fill="none" stroke="#000000" stroke-width="0.2" x1="122.123" y1="84.023" x2="114.939" y2="103.759"/>
			</g>
		</g>
		<g>
			<g id="XMLID_2_">
				<g>
					<path d="M75.76,112.326c0.962,5.455,6.164,9.098,11.619,8.136c5.456-0.962,9.098-6.164,8.136-11.619
						c-0.962-5.456-6.164-9.099-11.62-8.137C78.44,101.669,74.798,106.87,75.76,112.326z M73.259,112.889
						c-1.207-6.845,3.368-13.378,10.213-14.585c6.854-1.209,13.388,3.366,14.595,10.211c1.208,6.854-3.368,13.378-10.223,14.586
						C81,124.308,74.468,119.743,73.259,112.889z"/>
				</g>
				<g>
				</g>
			</g>
			<line fill="none" stroke="#000000" stroke-width="0.2" x1="75.325" y1="112.528" x2="96.007" y2="108.882"/>
			<line fill="none" stroke="#000000" stroke-width="0.2" x1="83.843" y1="100.364" x2="87.489" y2="121.046"/>
			<g>
				<line fill="none" stroke="#000000" stroke-width="0.2" x1="77.622" y1="117.454" x2="93.709" y2="103.956"/>
				<line fill="none" stroke="#000000" stroke-width="0.2" x1="78.917" y1="102.661" x2="92.415" y2="118.747"/>
			</g>
			<g>
				<line fill="none" stroke="#000000" stroke-width="0.2" x1="75.788" y1="107.052" x2="95.523" y2="114.233"/>
				<line fill="none" stroke="#000000" stroke-width="0.2" x1="89.224" y1="100.843" x2="82.04" y2="120.579"/>
			</g>
		</g>
		<g id="XMLID_3_">
			<g>
				<path d="M88.028,94.534l-1.75,15.26l12.37-4.04l-10.42-11.3L88.028,94.534z M99.668,104.704l5.53-19.83l-0.07-1.04l-0.38-0.5
					l-0.569-0.13l-15.411,9.64l0.09,0.36L99.668,104.704z M82.998,87.004l4.63,4.88l15.34-9.87l0.02-0.25l-0.25-0.28l0.04-0.5
					l0.91-0.89l0.45-0.02l0.08,0.16l4.47,4.41l10.47,8.78l-0.57,1.03l-11.819-8.76l-5.97,21.319l-14.97,4.28l-0.72-0.59l2.19-17.28
					l-0.02,0.05l-4.47-4.939l-0.72-0.41l-0.79-0.26l-0.41,0.01l-0.44-0.25l1.97-1.11L82.998,87.004z"/>
			</g>
			<g>
			</g>
		</g>
		<g>
			<g id="XMLID_5_">
				<g>
					<path d="M97.148,106.97c0.311,1.763,1.981,2.94,3.744,2.63c1.763-0.311,2.939-1.99,2.628-3.753
						c-0.31-1.753-1.989-2.93-3.752-2.618C98.006,103.539,96.839,105.217,97.148,106.97z M96.607,107.065
						c-0.363-2.059,1.008-4.016,3.066-4.379c2.059-0.363,4.017,1.008,4.379,3.066c0.363,2.058-1.008,4.016-3.066,4.379
						C98.928,110.494,96.97,109.124,96.607,107.065z"/>
				</g>
				<g>
				</g>
			</g>
			<g id="XMLID_4_">
				<g>
					<path d="M102.397,106.044c-0.201-1.142-1.289-1.895-2.431-1.693c-1.142,0.201-1.906,1.28-1.705,2.423
						c0.202,1.143,1.291,1.905,2.433,1.704C101.837,108.275,102.599,107.187,102.397,106.044z M97.848,106.847
						c-0.241-1.369,0.675-2.678,2.044-2.919c1.369-0.242,2.678,0.675,2.92,2.044c0.243,1.379-0.674,2.688-2.043,2.929
						C99.4,109.142,98.091,108.226,97.848,106.847z"/>
				</g>
				<g>
				</g>
			</g>
			<circle cx="100.335" cy="106.414" r="1.3"/>
			<circle fill="none" stroke="#000000" stroke-width="0.3" cx="100.723" cy="108.605" r="1.049"/>
			<circle fill="none" stroke="#000000" stroke-width="0.3" cx="99.946" cy="104.205" r="1.05"/>
			<circle fill="none" stroke="#000000" stroke-width="0.3" cx="98.136" cy="106.801" r="1.05"/>
			<circle fill="none" stroke="#000000" stroke-width="0.3" cx="102.536" cy="106.025" r="1.05"/>
		</g>
		<g id="XMLID_6_">
			<g>
				<polygon points="105.784,102.328 107.233,101.969 107.464,102.358 106.863,102.809 106.714,103.229 106.554,103.499 
					95.094,110.889 94.764,110.908 94.264,110.679 94.094,110.438 94.154,109.828 94.364,109.679 				"/>
			</g>
			<g>
			</g>
		</g>
		<circle cx="85.485" cy="110.774" r="1.783"/>
		<line fill="none" stroke="#000000" stroke-width="0.3" x1="99.184" y1="103.044" x2="85.091" y2="110.194"/>
		<polyline points="84.72,112.38 84.903,114.153 86.29,113.673 86.771,113.71 86.807,114.134 87.472,114.116 87.73,112.563 
			87.49,112.231 86.659,111.788 85.847,112.177 85.92,112.712 85.181,112.878 85.2,112.526 		"/>
		<circle cx="87.333" cy="114.81" r="0.803"/>
		<polyline fill="none" stroke="#000000" stroke-width="0.2" points="88.046,115.419 87.634,115.659 86.706,115.419 		"/>
		<line fill="none" stroke="#000000" stroke-width="0.3" x1="102.209" y1="109.54" x2="87.634" y2="115.659"/>
		<line fill="none" stroke="#000000" stroke-width="0.3" x1="87.325" y1="108.44" x2="86.259" y2="109.78"/>
		<polygon points="88.739,110.351 89.406,110.685 89.739,110.079 		"/>
		<line fill="none" stroke="#000000" stroke-width="0.2" x1="89.364" y1="110.601" x2="87.052" y2="110.913"/>
		<g>
			<path fill="none" stroke="#000000" stroke-width="0.2" d="M84.636,114.392c-1.324,0-2.396-0.67-2.396-1.5v0.084
				c0-1.152,0.877-2.084,1.959-2.084"/>
			<circle stroke="#000000" stroke-width="0.1" cx="84.385" cy="114.351" r="0.167"/>
			<polygon points="86.052,113.56 86.656,113.872 86.364,114.31 86.073,114.06 85.094,114.247 85.114,114.601 84.531,114.497 
				84.552,114.351 			"/>
		</g>
		<polyline points="104.734,78.09 105.51,77.37 106.842,76.839 107.439,76.391 108.391,75.901 108.799,75.466 108.758,74.868 
			108.689,74.474 108.895,74.093 109.207,73.971 109.533,74.134 110.09,74.691 110.336,75.249 110.947,75.983 111.246,76.513 
			111.355,77.315 111.695,77.9 112.143,78.308 112.688,78.566 112.646,78.715 112.375,78.688 111.775,78.348 111.449,78.077 
			111.314,78.199 110.797,77.981 110.566,77.642 110.621,77.247 110.648,77.166 110.676,76.921 110.389,76.391 110.336,76.323 
			109.941,76.214 109.668,76.513 109.18,77.451 109.438,77.954 109.588,78.566 109.533,79.409 109.438,80.442 109.111,81.108 
			108.596,81.733 107.834,82.44 106.678,83.039 106.311,82.277 107.807,81.285 107.82,81.244 108.445,80.251 108.676,79.191 
			108.582,78.375 108.582,78.335 108.201,77.682 107.602,77.56 106.678,77.9 105.625,78.268 		"/>
		<g>
			<polygon points="87.136,91.151 85.745,92.464 85.964,92.78 87.493,91.569 			"/>
			<polygon points="86.817,97.767 86.421,97.667 86.281,97.886 86.46,98.304 85.427,98.165 85.229,97.37 85.407,97.091 
				86.857,97.21 			"/>
			<polyline points="86.222,97.19 86.4,95.603 86.302,95.165 86.162,95.185 86.063,95.522 85.922,97.142 			"/>
			<path fill="none" stroke="#000000" stroke-width="0.2" d="M86.203,95.47c0-1.32,0.531-2.391,1.188-2.391"/>
		</g>
		<polygon points="76.25,87.782 75.797,87.579 76.547,87.376 84.188,83.424 85.203,83.205 85.406,83.236 85.359,83.486 
			85.156,83.564 83.719,84.361 83.609,84.268 81.891,85.283 80.828,86.096 79.906,86.907 78.953,87.47 77.172,87.813 		"/>
		<polygon points="79.391,87.688 80.047,87.829 82.172,86.688 82.672,84.986 83.109,84.346 82.219,84.908 81.875,85.861 
			80.641,86.58 80.375,87.001 79.75,87.407 79.297,87.204 78.844,87.392 		"/>
		<g>
			<polygon points="102.844,81.018 101.422,79.627 101.641,79.143 102.781,78.549 104.75,76.971 105.547,76.002 106.406,77.096 
				103.906,79.299 103.578,79.924 103.672,80.127 			"/>
			<circle cx="101.664" cy="79.838" r="0.305"/>
			<circle cx="102.414" cy="80.65" r="0.305"/>
		</g>
		<polyline points="107.078,76.33 106.406,77.096 105.547,76.002 106.438,75.174 107.969,74.564 108.656,74.049 109.75,73.486 
			110.219,72.986 110.172,72.299 110.094,71.846 110.328,71.408 110.688,71.268 111.063,71.455 111.703,72.096 111.984,72.736 
			112.688,73.58 113.031,74.189 113.156,75.111 113.547,75.783 114.063,76.252 114.688,76.549 114.641,76.721 114.328,76.689 
			113.641,76.299 113.266,75.986 113.109,76.127 112.516,75.877 112.25,75.486 112.313,75.033 112.344,74.939 112.375,74.658 
			112.047,74.049 111.984,73.971 111.531,73.846 111.219,74.189 110.656,75.268 110.953,75.846 111.125,76.549 111.063,77.518 
			110.953,78.705 110.578,79.471 109.984,80.189 109.109,81.002 107.781,81.689 107.359,80.814 109.078,79.674 109.094,79.627 
			109.813,78.486 110.078,77.268 109.969,76.33 109.969,76.283 109.531,75.533 108.844,75.393 107.781,75.783 107.703,75.814 
			107.078,76.33 		"/>
		<path fill="none" stroke="#000000" stroke-width="0.2" d="M106.938,77.549c1.891,4.531-3.438,6.766-5.266,7.016"/>
		<path fill="none" stroke="#000000" stroke-width="0.2" d="M106.973,77.408c-0.293,1.565-0.131,2.886,1.652,5.266"/>
		<path fill="none" stroke="#000000" stroke-width="0.2" d="M107.354,77.518c0,3.144,0.385,4.136-1.977,5.688"/>
		<path fill="none" stroke="#000000" stroke-width="0.2" d="M107.438,77.518c1.078,1.609-0.406,5.156-0.938,5.281"/>
		<polyline points="109.25,83.143 108.656,82.533 108.469,82.549 109.484,83.971 108.672,84.658 109.266,85.283 109.641,85.236 
			110.797,84.096 109.969,83.643 109.781,83.674 109.25,83.143 		"/>
		<path d="M80.749,75.139c0,0-1.344,2.135-1.34,3.371c0.002,1.233,0.211,2.404,0.848,3.291c0.634,0.887,0.949,1.424,2.037,1.995
			c1.089,0.572,2.695,2.104,3.095,2.585c0.399,0.478,2.69,2.034,3.416,2.45c0.724,0.414,1.604,0.816,1.933,1.121
			c0.326,0.303,1.354,0.762,1.623,1.297c0.094,0.184-0.119,0.279-0.326,0.953c-0.203,0.676-1.213,3.09-1.325,4.254
			c-0.153,1.578-0.111,2.508-0.153,3.658s-0.557,2.049-0.643,2.637c-0.09,0.588-0.387,1.344-0.563,1.715
			c-0.175,0.369-0.297,0.959-0.481,1.182c-0.186,0.225-0.899,1.727-0.241,2.26c0.661,0.533,1.784,0.824,2.504,1.053
			c0.716,0.229,1.743,0.766,3.291,1.08c1.544,0.313,3.069,0.344,3.74,0.236c0.676-0.107,0.646-0.791,0.291-1.213
			c-0.357-0.422-2.001-1.188-3.072-1.949c-0.865-0.613-1.617-1.443-1.858-1.729c-0.244-0.289-0.422-0.518-0.467-0.924
			c-0.133-1.232,1.193-4.484,1.293-5.029c0.098-0.543,1.417-3.271,2.01-5.086c0.59-1.813,1.148-4.051,0.896-4.797
			c-0.253-0.748-1.287-1.494-1.603-1.902c-0.318-0.408-1.414-2.396-1.414-2.396s-3.189-4.433-4.174-5.353
			c-0.982-0.918-0.396-0.998-0.064-1.299c0.332-0.302,0.967-1.209,1.398-1.367c0.434-0.154,2.975-2.301,3.271-2.434
			c0.299-0.13,1.626-1.582,1.626-1.582s1.077,3.408,1.434,3.662c0.357,0.256,2.943,1.702,4.688,2.055
			c1.74,0.352,4.43,0.86,5.006,1.155c0.576,0.298,1.012,0.563,1.434,0.604c0.422,0.042,1.379-0.414,2.002-0.401
			s1.076-0.526,1.131-0.979c0.053-0.452,0.311-1.354,0.176-1.664c-0.137-0.31-0.557-0.836-0.672-0.94
			c-0.115-0.103-0.533-0.228-0.773-0.196c-0.242,0.026-0.654,0.17-0.838,0.252c-0.184,0.08-0.41,0.185-0.615,0.348
			c-0.201,0.162-0.393,0.316-0.605,0.408c-0.217,0.097-0.578,0.113-0.832,0.188s-0.217,0.105-0.605,0.035
			c-0.387-0.069-1.861-0.539-3.352-1.27c-1.488-0.729-2.248-1.888-3.047-2.295c-0.797-0.408-0.754-0.758-0.666-1.16
			c0.088-0.404-0.061-2.396-0.348-3.219c-0.291-0.82,0.16-1.08-0.018-2.65c-0.176-1.569-1.705-2.719-2.209-3.037
			c-0.503-0.317-1.382,0.021-1.865,0.064c-0.483,0.039-2.163,0.305-3.203,0.824c-0.362,0.182-2.746,1.632-4.922,3.168
			c-1.729,1.221-3.524,2.993-4.015,3.438c-0.489,0.443-1.508,1.555-1.68,1.785C81.726,73.619,80.749,75.139,80.749,75.139
			L80.749,75.139z"/>
		<path d="M87.667,78.143c0,0,2.111-0.924,3.376-0.586c1.409,0.379,3.45,1.279,4.434,1.83c2.756,1.543,3.494,2.567,4.018,3.06
			c0.527,0.487,1.184,1.573,1.16,2.385c-0.02,0.81-0.086,4.627-0.059,5.078c0.025,0.449,0.111,4.01,0.137,4.641
			s0.316,2.996,0.389,3.336c0.074,0.344,0.275,1.41,1.125,1.758c0.846,0.348,1.996,0.506,2.664,0.617
			c0.666,0.111,1.326,0.381,1.875,0.219c0.545-0.16,1.031-0.199,1.254,0.049c0.227,0.246,0.4,0.611,0.309,0.959
			c-0.092,0.35-1.033,0.805-1.457,0.988c-0.42,0.188-2.471,0.701-3.201,0.693c-0.732-0.006-1.668,0.025-2.074,0.168
			c-0.408,0.143-1.012,0.371-1.498,0.354c-0.488-0.018-0.838,0.279-1.119-0.461c-0.467-1.238-0.33-2.615-0.313-3.104
			c0.016-0.486-1.272-4.645-1.353-4.793c-1.094-2.051-1.686-4.15-1.686-4.15s0.364-3.219,0.646-3.914
			c0.283-0.697-0.799-0.721-0.799-0.721l-2.723-0.686L87.667,78.143L87.667,78.143z"/>
		<path d="M96.042,68.232c0,0,1.391,5.839,2.224,7.207c0.836,1.371,3.371,2.289,3.918,2.443c0.549,0.153,4.563,0.691,5.322,0.858
			s2.188,0.448,2.188,0.448s0.818-0.422,1.004-0.697c0.184-0.271,0.891-1.551,0.891-1.551l-0.205-1.185c0,0-0.408-0.321-0.746-0.288
			c-0.336,0.032-0.988,0.17-1.254,0.286c-0.266,0.117-0.885,0.579-1.199,0.716c-0.313,0.142-1.064,0.146-1.064,0.146
			s-5.197-1.507-5.697-1.802c-0.504-0.293-0.725-1.196-0.717-1.646c0.01-0.448-0.816-3.571-0.912-3.792
			c-0.098-0.219-1.207-1.974-1.207-1.974l-1.634,0.239L96.042,68.232L96.042,68.232z"/>
		<path d="M95.659,64.499c0,0,0.67-0.487,0.719-0.804c0.051-0.314,0.066-0.932-0.313-1.262c-0.38-0.328-0.591-0.324-0.822-0.389
			c-0.232-0.063-0.672-0.172-0.691-0.391s0.1-0.333,0.1-0.333s0.176-0.392,0.235-0.636c0.086-0.367-0.073-0.793-0.093-0.924
			c-0.029-0.164-0.565-0.365-0.721-0.578c-0.156-0.213,0.092-0.574,0.092-0.574s2.918-2.223,5.657-2.215
			c2.742,0.008,3.652,1.578,3.875,1.883c0.221,0.306,0.709,0.973,0.688,1.267c-0.02,0.294-0.068,0.466-0.252,0.599
			s-0.656,0.201-0.656,0.201s0.188,0.19,0.285,0.584c0.1,0.393,0.059,0.521,0.059,0.521l-0.063,0.414c0,0,0.568,0.767,0.598,0.981
			c0.023,0.213-0.053,0.313-0.258,0.409c-0.238,0.116-0.477,0.103-0.477,0.103l0.049,0.287l0.117,0.369l-0.34,0.063l0.258,0.272
			c0,0-0.033,0.229-0.154,0.317c-0.123,0.089-0.201,0.13-0.09,0.282c0.109,0.15,0.203,0.447,0.111,0.644
			c-0.09,0.196-0.275,0.368-0.438,0.399c-0.164,0.031-0.799-0.016-1.018,0.003c-0.217,0.021-0.174-0.021-0.418,0.157
			c-0.244,0.177-0.189,0.084-0.486,0.354c-0.568,0.518-0.748,0.637-1.283,1.118c-0.533,0.479-1.232,0.991-1.232,0.991l-2.399-1.699
			L95.659,64.499L95.659,64.499z"/>
	</g>
</g>
</svg>
